<?xml version="1.0" encoding="UTF-8"?>
<svg xmlns="http://www.w3.org/2000/svg" xmlns:xlink="http://www.w3.org/1999/xlink" width="48pt" height="48pt" viewBox="0 0 48 48" version="1.1">
<g id="surface1">
<path style=" stroke:none;fill-rule:evenodd;fill:rgb(90.196078%,0%,0%);fill-opacity:1;" d="M 48 24 C 48 37.253906 37.253906 48 24 48 C 10.746094 48 0 37.253906 0 24 C 0 10.746094 10.746094 0 24 0 C 37.253906 0 48 10.746094 48 24 "/>
<path style=" stroke:none;fill-rule:evenodd;fill:rgb(100%,100%,100%);fill-opacity:1;" d="M 24.273438 37.199219 C 17.683594 37.222656 10.828125 31.574219 10.800781 22.5 C 10.78125 16.503906 14 10.726562 18.121094 7.300781 C 22.136719 3.960938 27.640625 1.816406 32.628906 1.800781 C 33.273438 1.796875 33.945312 1.851562 34.355469 1.992188 C 29.992188 2.902344 26.519531 6.980469 26.535156 11.609375 C 26.535156 11.761719 26.546875 11.925781 26.5625 12 C 33.863281 13.789062 37.179688 18.214844 37.199219 24.339844 C 37.21875 30.460938 32.40625 37.171875 24.273438 37.199219 "/>
</g>
</svg>
